<svg id="Layer_1" data-name="Layer 1" xmlns="http://www.w3.org/2000/svg" viewBox="0 0 256 256"><defs><style>.cls-1{fill:#f1f1f1;}.cls-2{fill:#202020;}.cls-3{fill:#005bea;}</style></defs><rect class="cls-1" width="256" height="256" rx="3.97"/><path class="cls-2" d="M7131.05,7185.44v5.23a13.84,13.84,0,0,0-9.55-3.55,13.49,13.49,0,0,0-10.15,4.34,15.15,15.15,0,0,0-.05,20.78,13.36,13.36,0,0,0,10.11,4.35,14,14,0,0,0,9.64-3.75v5.33a19,19,0,0,1-22.82-2.88,17.8,17.8,0,0,1-5.54-13.25,18.25,18.25,0,0,1,5.61-13.53,18.74,18.74,0,0,1,13.63-5.52A17,17,0,0,1,7131.05,7185.44Z" transform="translate(-7071.5 -7071.5)"/><path class="cls-2" d="M7137.41,7200.27a12.22,12.22,0,0,1,17,0,12.11,12.11,0,0,1,0,17,12.22,12.22,0,0,1-17,0,12.11,12.11,0,0,1,0-17Zm13.95,3a7.55,7.55,0,0,0-10.85,0,7.85,7.85,0,0,0,0,11,7.48,7.48,0,0,0,10.85,0,7.87,7.87,0,0,0,0-11Z" transform="translate(-7071.5 -7071.5)"/><path class="cls-2" d="M7166.48,7197.48v3.65h.14a7.07,7.07,0,0,1,2.43-3.17,6.27,6.27,0,0,1,3.72-1.15,6.5,6.5,0,0,1,3.55,1.11l-2,3.93a3.87,3.87,0,0,0-2.64-.91,5.05,5.05,0,0,0-2.78.7,4,4,0,0,0-1.61,2,10.45,10.45,0,0,0-.67,2.5,19.62,19.62,0,0,0-.17,2.81v11h-4.32v-22.47Z" transform="translate(-7071.5 -7071.5)"/><path class="cls-2" d="M7198.45,7209.44h-17.14a8,8,0,0,0,1.92,5.23,6.07,6.07,0,0,0,4.85,2.21,6.5,6.5,0,0,0,3.86-1.08,11,11,0,0,0,2.86-3.29l3.65,2.06a11.78,11.78,0,0,1-10.42,6.15,10.24,10.24,0,0,1-8-3.36,12.22,12.22,0,0,1-3-8.45,13.08,13.08,0,0,1,2.83-8.74q2.84-3.36,8.11-3.36c3.43,0,6,1.11,7.83,3.34a13.29,13.29,0,0,1,2.69,8.61Zm-16.9-3.27h12.58a6.74,6.74,0,0,0-2-4.1,5.9,5.9,0,0,0-4.18-1.51,6.06,6.06,0,0,0-4.24,1.58A6.68,6.68,0,0,0,7181.55,7206.17Z" transform="translate(-7071.5 -7071.5)"/><path class="cls-3" d="M7202.24,7220v-36.19h4.41a26.1,26.1,0,0,1,5,.43,15,15,0,0,1,4.15,1.46,7.22,7.22,0,0,1,3,3.07,10.52,10.52,0,0,1,1.08,5,8.52,8.52,0,0,1-1.06,4.06,6.06,6.06,0,0,1-2.83,2.81v.09a8.38,8.38,0,0,1,5.19,3.24,9.48,9.48,0,0,1,2.06,5.93q0,5.09-3.65,7.61a15.31,15.31,0,0,1-8.93,2.52Zm4.51-32.16v12h1.15a11,11,0,0,0,5.76-1.25c1.34-.83,2-2.43,2-4.8s-.67-3.91-2-4.73a11,11,0,0,0-5.68-1.22Zm0,15.6v12.53h3.46q8.53,0,8.54-6.39a5.47,5.47,0,0,0-.84-3.09,5.12,5.12,0,0,0-2.28-1.9,13.16,13.16,0,0,0-2.93-.89,18.75,18.75,0,0,0-3.17-.26Z" transform="translate(-7071.5 -7071.5)"/><path class="cls-3" d="M7227.63,7197.48H7232v12.44a9.27,9.27,0,0,0,1.13,4.94c.75,1.22,2.1,1.82,4.05,1.82s3.31-.6,4.06-1.82a9.36,9.36,0,0,0,1.13-4.94v-12.44h4.32v12.92a11.32,11.32,0,0,1-2.35,7.56q-2.35,2.76-7.16,2.76T7230,7218a11.27,11.27,0,0,1-2.35-7.56Z" transform="translate(-7071.5 -7071.5)"/><path class="cls-3" d="M7253.4,7185.08a3,3,0,0,1,4.23,0,3,3,0,0,1,.86,2.13,2.86,2.86,0,0,1-.86,2.07,3,3,0,0,1-4.23,0,2.86,2.86,0,0,1-.86-2.07A3,3,0,0,1,7253.4,7185.08Zm4.28,12.4V7220h-4.32v-22.47Z" transform="translate(-7071.5 -7071.5)"/><path class="cls-3" d="M7269.1,7178.28V7220h-4.32v-41.67Z" transform="translate(-7071.5 -7071.5)"/><path class="cls-3" d="M7292,7220v-3.51h-.09a10,10,0,0,1-3.34,3.12,8.42,8.42,0,0,1-4.29,1.16,9.64,9.64,0,0,1-7.88-3.53,13.19,13.19,0,0,1-2.88-8.62,12.46,12.46,0,0,1,2.93-8.28,9.5,9.5,0,0,1,7.63-3.48,9,9,0,0,1,7.83,4.42h.09v-22.95h4.32V7220Zm-7.05-3.07a6.57,6.57,0,0,0,5.35-2.36,8.76,8.76,0,0,0,1.94-5.8,8.58,8.58,0,0,0-2-5.74,6.64,6.64,0,0,0-5.33-2.33,6.3,6.3,0,0,0-5.16,2.38,8.67,8.67,0,0,0-1.95,5.69,8.93,8.93,0,0,0,1.92,5.76A6.3,6.3,0,0,0,7284.94,7216.88Z" transform="translate(-7071.5 -7071.5)"/></svg>