<?xml version="1.0" encoding="utf-8"?>
<!-- Generator: Adobe Illustrator 24.2.1, SVG Export Plug-In . SVG Version: 6.00 Build 0)  -->
<svg version="1.1" id="Layer_1" xmlns="http://www.w3.org/2000/svg" xmlns:xlink="http://www.w3.org/1999/xlink" x="0px" y="0px"
	 viewBox="0 0 14400 14400" style="enable-background:new 0 0 14400 14400;" xml:space="preserve">
<style type="text/css">
	.st0{fill:#005BEA;}
	.st1{fill:none;stroke:#F1F1F1;stroke-miterlimit:10;}
</style>
<g>
	<path class="st0" d="M7199.5,7215.07L7199.5,7215.07c-8.84,0-16-7.16-16-16l0,0c0-8.84,7.16-16,16-16l0,0c8.84,0,16,7.16,16,16l0,0
		C7215.5,7207.91,7208.34,7215.07,7199.5,7215.07z"/>
	<path class="st1" d="M7207.5,7200.07c0,5-3.5,7.5-7.66,8.95c-0.22,0.07-0.45,0.07-0.67-0.01c-4.17-1.44-7.67-3.94-7.67-8.94v-7
		c0-0.55,0.45-1,1-1c2,0,4.5-1.2,6.24-2.72c0.44-0.37,1.08-0.37,1.52,0c1.75,1.53,4.24,2.72,6.24,2.72c0.55,0,1,0.45,1,1V7200.07z"
		/>
</g>
</svg>
